<svg width="1600" height="700" viewBox="0 0 1600 700" fill="none" xmlns="http://www.w3.org/2000/svg">
  <defs>
    <linearGradient id="bg" x1="100" y1="40" x2="1500" y2="660" gradientUnits="userSpaceOnUse">
      <stop stop-color="#FFF9F1"/>
      <stop offset="0.52" stop-color="#F6FBF8"/>
      <stop offset="1" stop-color="#F5F9FF"/>
    </linearGradient>
    <linearGradient id="heroLine" x1="460" y1="256" x2="1160" y2="470" gradientUnits="userSpaceOnUse">
      <stop stop-color="#F97316"/>
      <stop offset="0.5" stop-color="#10B981"/>
      <stop offset="1" stop-color="#2563EB"/>
    </linearGradient>
    <filter id="shadow" x="0" y="0" width="1600" height="700" filterUnits="userSpaceOnUse">
      <feDropShadow dx="0" dy="28" stdDeviation="34" flood-color="#0F172A" flood-opacity="0.10"/>
    </filter>
  </defs>

  <rect width="1600" height="700" rx="44" fill="url(#bg)"/>
  <circle cx="148" cy="118" r="88" fill="#FFE7D4"/>
  <circle cx="1412" cy="120" r="112" fill="#DCFCE7"/>
  <circle cx="1392" cy="578" r="150" fill="#DBEAFE"/>
  <circle cx="226" cy="608" r="118" fill="#FEF3C7"/>

  <g filter="url(#shadow)">
    <rect x="130" y="96" width="1340" height="508" rx="36" fill="#FFFFFF" fill-opacity="0.72" stroke="#E5E7EB"/>
  </g>

  <rect x="172" y="136" width="128" height="46" rx="16" fill="#111827"/>
  <text x="194" y="166" fill="#FFFFFF" font-family="Inter, Arial, sans-serif" font-size="18" font-weight="700">shop-use</text>

  <text x="172" y="250" fill="#111827" font-family="Inter, Arial, sans-serif" font-size="58" font-weight="800">让店群运营进入 Agent 时代</text>
  <text x="172" y="308" fill="#334155" font-family="Inter, Arial, sans-serif" font-size="30" font-weight="500">
    Shopify · TikTok Shop · Amazon · Shopee · Lazada · WooCommerce
  </text>

  <g>
    <path d="M920 182C1018 206 1094 256 1126 344C1153 420 1134 492 1084 540" stroke="url(#heroLine)" stroke-width="16" stroke-linecap="round"/>
    <circle cx="928" cy="186" r="16" fill="#F97316"/>
    <circle cx="1052" cy="286" r="16" fill="#10B981"/>
    <circle cx="1116" cy="396" r="16" fill="#2563EB"/>
    <circle cx="1078" cy="518" r="16" fill="#111827"/>
  </g>

  <g>
    <rect x="820" y="154" width="178" height="70" rx="22" fill="#FFF7ED" stroke="#FDBA74"/>
    <text x="846" y="186" fill="#9A3412" font-family="Inter, Arial, sans-serif" font-size="18" font-weight="700">自动寻源</text>
    <text x="846" y="208" fill="#7C2D12" font-family="Inter, Arial, sans-serif" font-size="16">找品 / 选品 / 趋势判断</text>
  </g>

  <g>
    <rect x="990" y="236" width="182" height="70" rx="22" fill="#ECFDF5" stroke="#A7F3D0"/>
    <text x="1016" y="268" fill="#065F46" font-family="Inter, Arial, sans-serif" font-size="18" font-weight="700">产品设计</text>
    <text x="1016" y="290" fill="#064E3B" font-family="Inter, Arial, sans-serif" font-size="16">卖点 / 详情页 / 多语言文案</text>
  </g>

  <g>
    <rect x="928" y="344" width="210" height="76" rx="24" fill="#EFF6FF" stroke="#BFDBFE"/>
    <text x="954" y="378" fill="#1D4ED8" font-family="Inter, Arial, sans-serif" font-size="18" font-weight="700">上架与执行</text>
    <text x="954" y="400" fill="#1E3A8A" font-family="Inter, Arial, sans-serif" font-size="16">可审核、可留痕、可复盘</text>
  </g>

  <g>
    <rect x="760" y="434" width="252" height="82" rx="26" fill="#111827"/>
    <text x="788" y="468" fill="#FFFFFF" font-family="Inter, Arial, sans-serif" font-size="18" font-weight="700">店群 / 站群 / IM 统一管理</text>
    <text x="788" y="492" fill="#CBD5E1" font-family="Inter, Arial, sans-serif" font-size="16">一个入口管理多个店铺与渠道</text>
  </g>

  <text x="172" y="560" fill="#475569" font-family="Inter, Arial, sans-serif" font-size="22">
    shop-use.cn
  </text>
  <text x="330" y="560" fill="#64748B" font-family="Inter, Arial, sans-serif" font-size="22">
    Private Deploy · Custom Build · Agent OS
  </text>
</svg>
