<svg width="1200" height="620" viewBox="0 0 1200 620" fill="none" xmlns="http://www.w3.org/2000/svg">
  <defs>
    <linearGradient id="bg" x1="90" y1="30" x2="1110" y2="590" gradientUnits="userSpaceOnUse">
      <stop stop-color="#F7F1E8"/>
      <stop offset="1" stop-color="#E8F2EF"/>
    </linearGradient>
    <linearGradient id="card" x1="250" y1="120" x2="930" y2="520" gradientUnits="userSpaceOnUse">
      <stop stop-color="#FFFFFF"/>
      <stop offset="1" stop-color="#F8FAFC"/>
    </linearGradient>
    <linearGradient id="accent" x1="260" y1="150" x2="520" y2="420" gradientUnits="userSpaceOnUse">
      <stop stop-color="#FF8A3D"/>
      <stop offset="1" stop-color="#F97316"/>
    </linearGradient>
    <linearGradient id="mint" x1="760" y1="170" x2="970" y2="410" gradientUnits="userSpaceOnUse">
      <stop stop-color="#3CCF91"/>
      <stop offset="1" stop-color="#10B981"/>
    </linearGradient>
    <filter id="shadow" x="0" y="0" width="1200" height="620" filterUnits="userSpaceOnUse">
      <feDropShadow dx="0" dy="20" stdDeviation="24" flood-color="#1F2937" flood-opacity="0.10"/>
    </filter>
  </defs>
  <rect width="1200" height="620" rx="36" fill="url(#bg)"/>
  <circle cx="145" cy="120" r="58" fill="#FFD9BF"/>
  <circle cx="1045" cy="112" r="72" fill="#D4F3E5"/>
  <circle cx="1040" cy="510" r="92" fill="#FFE9D8"/>
  <g filter="url(#shadow)">
    <rect x="150" y="104" width="900" height="412" rx="30" fill="url(#card)" stroke="#E5E7EB"/>
  </g>
  <rect x="176" y="130" width="848" height="42" rx="14" fill="#111827"/>
  <circle cx="204" cy="151" r="7" fill="#FB7185"/>
  <circle cx="228" cy="151" r="7" fill="#FBBF24"/>
  <circle cx="252" cy="151" r="7" fill="#34D399"/>
  <rect x="178" y="196" width="360" height="282" rx="24" fill="#FFF7ED" stroke="#FED7AA"/>
  <rect x="566" y="196" width="205" height="132" rx="24" fill="#ECFDF5" stroke="#A7F3D0"/>
  <rect x="789" y="196" width="205" height="132" rx="24" fill="#EFF6FF" stroke="#BFDBFE"/>
  <rect x="566" y="346" width="428" height="132" rx="24" fill="#F8FAFC" stroke="#E5E7EB"/>
  <rect x="214" y="236" width="184" height="18" rx="9" fill="#F97316"/>
  <rect x="214" y="270" width="250" height="14" rx="7" fill="#FDBA74"/>
  <rect x="214" y="296" width="228" height="14" rx="7" fill="#FDBA74"/>
  <rect x="214" y="332" width="120" height="40" rx="20" fill="url(#accent)"/>
  <rect x="214" y="392" width="240" height="16" rx="8" fill="#FDBA74"/>
  <rect x="214" y="420" width="188" height="16" rx="8" fill="#FCD34D"/>
  <rect x="590" y="228" width="160" height="18" rx="9" fill="#059669"/>
  <rect x="590" y="260" width="125" height="14" rx="7" fill="#6EE7B7"/>
  <rect x="590" y="286" width="146" height="14" rx="7" fill="#6EE7B7"/>
  <rect x="814" y="228" width="160" height="18" rx="9" fill="#2563EB"/>
  <rect x="814" y="260" width="132" height="14" rx="7" fill="#93C5FD"/>
  <rect x="814" y="286" width="148" height="14" rx="7" fill="#93C5FD"/>
  <rect x="594" y="378" width="110" height="18" rx="9" fill="#334155"/>
  <rect x="594" y="410" width="300" height="14" rx="7" fill="#CBD5E1"/>
  <rect x="594" y="436" width="228" height="14" rx="7" fill="#CBD5E1"/>
  <path d="M476 430C526 405 548 364 566 322C587 272 616 244 664 221" stroke="url(#accent)" stroke-width="10" stroke-linecap="round"/>
  <path d="M664 221L651 220L657 233" stroke="#F97316" stroke-width="8" stroke-linecap="round" stroke-linejoin="round"/>
  <path d="M735 262C765 232 797 214 840 206" stroke="url(#mint)" stroke-width="10" stroke-linecap="round"/>
  <path d="M840 206L828 209L836 219" stroke="#10B981" stroke-width="8" stroke-linecap="round" stroke-linejoin="round"/>
  <text x="170" y="564" fill="#111827" font-family="Inter, Arial, sans-serif" font-size="28" font-weight="700">shop-use.cn</text>
  <text x="322" y="564" fill="#475569" font-family="Inter, Arial, sans-serif" font-size="20">电商运营 Agent OS</text>
</svg>
